<svg width="610.791" height="77.881" viewBox="0 0 610.791 77.881" xmlns="http://www.w3.org/2000/svg"><g id="svgGroup" stroke-linecap="round" fill-rule="evenodd" font-size="9pt" stroke="#000" stroke-width="0.25mm" fill="#000" style="stroke:#000;stroke-width:0.25mm;fill:#000"><path d="M 224.311 29.21 A 52.407 52.407 0 0 0 224.316 28.394 A 6.087 6.087 0 0 0 224.097 26.727 A 5.053 5.053 0 0 0 223.438 25.293 A 0.426 0.426 0 0 1 223.566 25.006 Q 223.816 24.732 224.557 24.483 A 7.96 7.96 0 0 1 224.854 24.39 A 10.192 10.192 0 0 1 227.734 23.975 Q 231.17 23.975 233.186 25.683 A 6.449 6.449 0 0 1 234.155 26.709 A 10.326 10.326 0 0 1 235.775 29.738 A 9.184 9.184 0 0 1 236.23 32.617 A 18.302 18.302 0 0 1 235.679 36.992 A 22.692 22.692 0 0 1 235.01 39.209 Q 233.828 42.519 231.706 46.333 A 66.844 66.844 0 0 1 231.567 46.582 Q 229.346 50.537 226.855 54.688 A 173.051 173.051 0 0 0 215.332 77.197 A 10.054 10.054 0 0 1 212.73 77.814 A 12.441 12.441 0 0 1 211.426 77.881 A 10.205 10.205 0 0 1 207.349 77.051 Q 205.42 76.221 204.541 75.098 A 14.243 14.243 0 0 1 203.555 73.352 Q 201.19 68.576 196.301 54.397 A 685.795 685.795 0 0 1 195.947 53.369 A 109.831 109.831 0 0 0 194.159 56.666 Q 192.21 60.396 189.799 65.545 A 363.995 363.995 0 0 0 189.453 66.284 A 3175.695 3175.695 0 0 1 187.906 69.602 Q 185.954 73.782 184.892 76.013 A 248.414 248.414 0 0 1 184.326 77.197 A 9.945 9.945 0 0 1 181.957 77.785 A 12.673 12.673 0 0 1 180.371 77.881 Q 178.174 77.881 176.123 77.051 A 11.781 11.781 0 0 1 175.072 76.568 Q 173.859 75.932 173.315 75.195 A 5.061 5.061 0 0 1 172.968 74.622 Q 172.078 72.971 169.995 67.773 A 12153.674 12153.674 0 0 0 166.013 57.849 A 13854.932 13854.932 0 0 0 164.624 54.395 A 137.58 137.58 0 0 0 158.35 40.918 A 62.467 62.467 0 0 0 156.887 38.317 Q 154.574 34.444 152.84 33.164 A 4.713 4.713 0 0 0 152.539 32.959 Q 151.758 32.471 147.803 32.178 A 219.952 219.952 0 0 1 147.723 31.612 Q 147.461 29.745 147.461 29.468 A 4.89 4.89 0 0 1 147.473 29.132 Q 147.485 28.955 147.51 28.76 A 30.744 30.744 0 0 1 157.739 25.294 A 40.643 40.643 0 0 1 164.16 24.805 A 24.171 24.171 0 0 1 164.676 24.811 Q 165.261 24.823 166.067 24.862 A 101.399 101.399 0 0 1 166.846 24.902 A 13.214 13.214 0 0 1 168.747 27.719 Q 173.376 36.237 182.422 65.674 Q 187.244 55.73 190.436 47.531 A 155.068 155.068 0 0 0 192.236 42.676 Q 189.152 34.14 187.566 30.285 A 66.042 66.042 0 0 0 187.109 29.199 A 24.901 24.901 0 0 1 189.94 27.466 Q 193.006 25.879 195.605 25.879 Q 199.561 25.879 201.27 28.516 Q 202.725 30.677 203.942 34.91 A 51.853 51.853 0 0 1 204.199 35.84 A 905.565 905.565 0 0 1 205.133 39.36 Q 205.499 40.752 205.827 42.021 A 500.513 500.513 0 0 1 206.445 44.434 Q 208.202 51.462 211.133 60.179 A 324.552 324.552 0 0 0 213.037 65.674 Q 222.561 39.146 223.99 32.333 A 13.417 13.417 0 0 0 224.219 30.957 Q 224.292 30.368 224.311 29.21 Z M 522.9 65.283 L 523.389 46.68 Q 523.389 41.522 523.115 39.459 A 7.299 7.299 0 0 0 522.974 38.672 A 11.434 11.434 0 0 0 522.693 37.715 Q 522.371 36.784 521.953 36.22 A 3.273 3.273 0 0 0 521.924 36.182 A 4.42 4.42 0 0 0 519.24 34.595 A 6.759 6.759 0 0 0 517.92 34.473 Q 515.779 34.473 514.153 34.859 A 10.367 10.367 0 0 0 513.428 35.059 A 12.629 12.629 0 0 0 511.115 36.136 Q 508.811 37.473 505.921 40.062 A 66.557 66.557 0 0 0 503.662 42.188 A 611.818 611.818 0 0 1 503.652 45.309 Q 503.611 53.018 503.406 72.536 A 20598.813 20598.813 0 0 1 503.369 75.977 A 82.222 82.222 0 0 1 499.856 76.505 Q 496.707 76.904 494.336 76.904 Q 491.411 76.904 489.222 76.296 A 12.135 12.135 0 0 1 488.232 75.977 A 338.215 338.215 0 0 0 488.892 64.569 A 261.994 261.994 0 0 0 489.111 54.077 Q 489.111 47.179 488.996 41.584 A 373.772 373.772 0 0 0 488.867 36.768 A 7.865 7.865 0 0 0 488.727 35.218 Q 488.559 34.385 488.189 33.783 A 3.118 3.118 0 0 0 486.23 32.373 Q 484.57 31.836 481.543 31.592 A 16.159 16.159 0 0 1 481.389 30.849 Q 481.265 30.167 481.252 29.678 A 4.207 4.207 0 0 1 481.25 29.565 Q 481.25 28.809 481.445 28.174 Q 488.477 24.219 498.926 24.219 A 97.901 97.901 0 0 1 499.725 24.222 Q 500.829 24.231 501.45 24.267 A 14.507 14.507 0 0 1 501.465 24.268 A 10.816 10.816 0 0 1 502.423 26.551 Q 503.151 28.94 503.424 32.581 A 58.359 58.359 0 0 1 503.564 35.498 Q 512.695 23.779 524.951 23.779 A 13.423 13.423 0 0 1 528.815 24.307 A 10.185 10.185 0 0 1 533.813 27.612 A 14.528 14.528 0 0 1 536.419 32.409 Q 537.076 34.391 537.341 36.757 A 27.741 27.741 0 0 1 537.451 37.988 A 91.016 91.016 0 0 1 537.646 43.945 A 69.381 69.381 0 0 1 537.554 47.451 A 87.529 87.529 0 0 1 537.354 50.391 Q 536.523 60.938 536.523 66.553 A 1.647 1.647 0 0 0 537.11 67.809 Q 537.373 68.048 537.754 68.249 A 5.128 5.128 0 0 0 538.33 68.506 A 10.621 10.621 0 0 0 540.56 69.093 A 9.086 9.086 0 0 0 541.87 69.189 Q 543.507 69.189 544.164 69.015 A 1.955 1.955 0 0 0 544.238 68.994 Q 544.737 70.116 544.811 71.079 A 4.318 4.318 0 0 1 544.824 71.411 A 19.503 19.503 0 0 1 544.819 71.887 Q 544.804 72.502 544.746 72.809 A 1.566 1.566 0 0 1 544.727 72.9 Q 537.801 76.493 533.544 77.36 A 12.342 12.342 0 0 1 531.104 77.637 A 10.297 10.297 0 0 1 528.698 77.375 A 6.06 6.06 0 0 1 524.756 74.585 Q 523.068 71.809 522.916 66.385 A 39.263 39.263 0 0 1 522.9 65.283 Z M 20.068 27.686 L 19.922 36.768 L 39.063 35.693 A 2.327 2.327 0 0 1 39.44 36.37 Q 39.844 37.431 39.844 39.502 A 32.717 32.717 0 0 1 39.355 45.166 Q 36.67 45.557 32.373 45.557 A 53.919 53.919 0 0 1 29.651 45.479 Q 25.783 45.282 19.922 44.58 L 19.824 58.496 Q 19.824 68.115 21.143 75.879 A 26.561 26.561 0 0 1 17.247 76.736 Q 14.443 77.148 11.06 77.148 A 43.166 43.166 0 0 1 8.693 77.089 Q 4.788 76.873 3.564 75.879 Q 4.686 65.897 4.949 53.197 A 388.388 388.388 0 0 0 5.029 45.166 L 5.029 18.457 Q 5.029 15.137 4.126 13.989 A 3.791 3.791 0 0 0 3.34 13.26 Q 2.52 12.675 1.184 12.21 A 15.313 15.313 0 0 0 0.732 12.061 A 2.959 2.959 0 0 1 0.315 11.248 Q 0.044 10.465 0.006 9.302 A 11.938 11.938 0 0 1 0 8.911 A 51.037 51.037 0 0 1 0.009 7.906 Q 0.036 6.549 0.142 5.889 A 4.605 4.605 0 0 1 0.146 5.859 A 1135.522 1135.522 0 0 1 2.438 5.835 Q 5.025 5.81 8.534 5.785 A 4426.819 4426.819 0 0 1 11.914 5.762 A 3912.386 3912.386 0 0 0 15.485 5.737 Q 18.921 5.712 21.345 5.687 A 826.344 826.344 0 0 0 23.34 5.664 A 653.959 653.959 0 0 0 28.976 5.56 Q 37.344 5.372 48.369 4.945 A 1833.059 1833.059 0 0 0 49.951 4.883 A 1.183 1.183 0 0 1 50.236 5.364 Q 50.696 6.609 50.73 10.543 A 74.662 74.662 0 0 1 50.732 11.182 Q 50.732 16.797 49.219 19.678 Q 47.705 22.559 43.555 22.559 Q 40.896 22.559 39.259 21.497 A 5.043 5.043 0 0 1 37.744 19.971 L 37.744 14.063 Q 26.097 13.504 20.869 13.402 A 105.394 105.394 0 0 0 18.848 13.379 Q 19.897 18.288 20.044 24.568 A 89.091 89.091 0 0 1 20.068 26.66 L 20.068 27.686 Z M 360.693 67.676 L 360.693 61.865 L 360.596 20.996 A 16.33 16.33 0 0 0 360.387 18.274 Q 360.152 16.888 359.652 15.828 A 5.601 5.601 0 0 0 357.031 13.086 A 3.557 3.557 0 0 0 356.744 12.945 Q 356.324 12.759 355.64 12.549 A 43.904 43.904 0 0 1 355.309 12.446 Q 354.662 12.241 354.498 12.161 A 0.624 0.624 0 0 1 354.492 12.158 Q 353.76 11.182 353.76 8.96 Q 353.76 6.738 353.906 5.859 A 59.565 59.565 0 0 1 365.894 4.639 A 470.343 470.343 0 0 1 368.333 4.645 Q 371.397 4.66 372.976 4.72 A 31.25 31.25 0 0 1 373.804 4.761 A 67.516 67.516 0 0 1 374.247 4.791 Q 375.687 4.894 375.827 4.979 A 0.073 0.073 0 0 1 375.83 4.98 Q 376.471 5.255 376.425 6.774 A 7.73 7.73 0 0 1 376.416 6.982 L 375.684 25.977 L 375.684 60.791 A 71.958 71.958 0 0 0 375.699 62.323 Q 375.733 63.921 375.844 65 A 14.173 14.173 0 0 0 375.928 65.674 A 6.32 6.32 0 0 0 376.165 66.695 Q 376.457 67.587 377.002 68.164 Q 380.273 67.92 386.865 67.48 Q 391.912 67.144 395.299 66.865 A 230.203 230.203 0 0 0 397.217 66.699 L 397.9 60.596 A 3.426 3.426 0 0 1 398.479 59.958 Q 399.094 59.422 400.103 58.93 A 12.18 12.18 0 0 1 400.244 58.862 Q 401.69 58.181 403.748 58.076 A 15.104 15.104 0 0 1 404.517 58.057 A 7.193 7.193 0 0 1 406.141 58.229 Q 407.321 58.503 408.162 59.209 A 4.43 4.43 0 0 1 408.496 59.521 A 6.153 6.153 0 0 1 409.696 61.467 Q 410.931 64.466 410.984 70.455 A 61.37 61.37 0 0 1 410.986 70.996 Q 410.986 74.423 410.256 75.578 A 1.739 1.739 0 0 1 410.107 75.781 Q 405.908 75.879 372.705 75.879 L 363.184 75.879 A 1.641 1.641 0 0 1 362.573 75.475 Q 361.962 74.864 361.45 73.462 A 10.247 10.247 0 0 1 361.027 71.883 Q 360.693 70.14 360.693 67.676 Z M 466.309 48.291 L 466.016 64.697 L 466.016 65.186 A 4.106 4.106 0 0 0 466.136 66.228 Q 466.487 67.559 467.857 67.812 A 3.854 3.854 0 0 0 468.555 67.871 A 6.871 6.871 0 0 0 470.569 67.554 Q 471.404 67.298 472.278 66.837 A 12.555 12.555 0 0 0 472.705 66.602 A 4.892 4.892 0 0 1 473.289 67.203 Q 473.553 67.522 473.804 67.917 A 9.261 9.261 0 0 1 473.999 68.237 A 11.368 11.368 0 0 1 474.272 68.733 Q 474.532 69.237 474.643 69.606 A 2.176 2.176 0 0 1 474.707 69.873 A 29.42 29.42 0 0 1 471.361 73.515 Q 469.401 75.293 467.393 76.295 A 11.665 11.665 0 0 1 462.134 77.588 Q 456.718 77.588 454.016 73.173 A 13.451 13.451 0 0 1 453.027 71.191 A 40.128 40.128 0 0 1 446.842 74.751 A 34.629 34.629 0 0 1 443.872 75.952 A 36.467 36.467 0 0 1 440.822 76.883 Q 439.268 77.28 437.894 77.453 A 16.244 16.244 0 0 1 435.864 77.588 A 26.828 26.828 0 0 1 431.922 77.309 A 22.249 22.249 0 0 1 429.663 76.855 Q 426.807 76.123 424.365 74.512 A 11.056 11.056 0 0 1 419.557 67.508 A 18.375 18.375 0 0 1 419.092 63.232 A 12.824 12.824 0 0 1 419.826 58.84 A 11.636 11.636 0 0 1 421.411 55.884 A 14.973 14.973 0 0 1 425.95 51.848 A 18.677 18.677 0 0 1 427.734 50.928 Q 435.4 47.461 446.045 47.168 L 451.709 46.973 A 135.374 135.374 0 0 0 451.859 45.099 Q 452.006 43.066 452.04 41.581 A 37.054 37.054 0 0 0 452.051 40.723 A 21.71 21.71 0 0 0 451.877 37.873 Q 451.685 36.428 451.281 35.254 A 8.447 8.447 0 0 0 450.073 32.91 A 5.702 5.702 0 0 0 447.693 31.108 Q 445.746 30.273 442.725 30.273 A 7.394 7.394 0 0 0 440.552 30.576 A 5.657 5.657 0 0 0 437.72 32.52 A 7.216 7.216 0 0 0 436.549 34.748 Q 436.206 35.778 436.056 37.039 A 17.912 17.912 0 0 0 435.938 39.16 A 0.6 0.6 0 0 1 435.813 39.499 Q 435.484 39.973 434.277 40.576 A 13.855 13.855 0 0 1 431.024 41.669 A 11.808 11.808 0 0 1 428.735 41.895 A 7.883 7.883 0 0 1 426.861 41.684 A 5.446 5.446 0 0 1 424.341 40.332 Q 422.742 38.805 422.706 36.064 A 9.66 9.66 0 0 1 422.705 35.938 A 7.833 7.833 0 0 1 423.951 31.731 A 10.443 10.443 0 0 1 424.756 30.615 A 12.573 12.573 0 0 1 428.41 27.616 A 15.93 15.93 0 0 1 430.225 26.758 A 37.597 37.597 0 0 1 438.956 24.515 A 49.429 49.429 0 0 1 445.703 24.072 A 45.501 45.501 0 0 1 450.365 24.294 Q 455.95 24.871 458.984 26.953 A 13.466 13.466 0 0 1 463.967 33.079 A 17.084 17.084 0 0 1 464.404 34.229 A 30.71 30.71 0 0 1 465.601 39.001 Q 466.021 41.425 466.192 44.246 A 67.098 67.098 0 0 1 466.309 48.291 Z M 604.004 10.107 L 603.564 40.186 A 931.483 931.483 0 0 0 603.606 48.618 Q 603.674 56.171 603.857 65.479 A 5.877 5.877 0 0 0 603.986 66.765 Q 604.445 68.803 606.543 68.994 A 9.908 9.908 0 0 0 606.876 69.016 Q 607.434 69.043 608.35 69.043 A 51.47 51.47 0 0 1 608.926 69.046 Q 609.741 69.055 610.254 69.092 Q 610.791 70.02 610.791 71.045 A 12.177 12.177 0 0 1 610.77 71.773 Q 610.748 72.148 610.701 72.474 A 6.197 6.197 0 0 1 610.645 72.803 A 53.541 53.541 0 0 1 605.837 75.222 Q 600.423 77.588 596.338 77.588 A 6.694 6.694 0 0 1 592.587 75.596 Q 591.66 74.668 590.867 73.323 A 18.1 18.1 0 0 1 589.844 71.289 A 30.988 30.988 0 0 1 587.043 73.685 Q 585.008 75.214 583.008 76.099 A 17.702 17.702 0 0 1 576.435 77.574 A 20.575 20.575 0 0 1 575.684 77.588 A 33.726 33.726 0 0 1 571.681 77.361 A 26.202 26.202 0 0 1 568.481 76.782 A 21.691 21.691 0 0 1 563.752 74.98 A 25.862 25.862 0 0 1 562.061 74.023 A 21.342 21.342 0 0 1 556.543 69.141 Q 551.81 63.225 551.325 53.612 A 44.53 44.53 0 0 1 551.27 51.367 A 29.794 29.794 0 0 1 552.042 44.463 A 24.977 24.977 0 0 1 553.711 39.648 A 24.66 24.66 0 0 1 557.357 33.943 A 21.627 21.627 0 0 1 560.254 31.152 A 30.65 30.65 0 0 1 577.442 24.574 A 39.244 39.244 0 0 1 580.42 24.463 A 34.228 34.228 0 0 1 582.746 24.551 Q 585.222 24.721 588.612 25.219 A 131.239 131.239 0 0 1 589.746 25.391 L 589.453 12.5 A 6.098 6.098 0 0 0 589.08 10.686 A 4.918 4.918 0 0 0 587.622 8.643 A 6.948 6.948 0 0 0 584.951 7.269 A 9.372 9.372 0 0 0 583.35 6.982 A 219.952 219.952 0 0 1 583.27 6.417 Q 583.008 4.55 583.008 4.272 A 4.89 4.89 0 0 1 583.02 3.937 Q 583.032 3.76 583.057 3.564 A 52.233 52.233 0 0 1 596.872 0.223 A 47.571 47.571 0 0 1 601.465 0 L 602.344 0 A 3.165 3.165 0 0 1 602.673 0.589 Q 603.149 1.66 603.516 3.857 A 36.086 36.086 0 0 1 603.956 8.07 A 42.749 42.749 0 0 1 604.004 10.107 Z M 287.109 52.588 L 258.008 54.785 A 23.886 23.886 0 0 0 260.182 61.087 A 19.593 19.593 0 0 0 264.258 66.455 Q 269.043 70.898 275.439 70.898 A 16.377 16.377 0 0 0 282.263 69.341 Q 284.53 68.311 286.809 66.598 A 32.539 32.539 0 0 0 288.33 65.381 Q 290.321 66.695 291.045 68.398 A 5.131 5.131 0 0 1 291.309 69.189 Q 287.292 73.86 279.842 76.151 A 39.254 39.254 0 0 1 278.027 76.66 Q 274.693 77.528 270.396 77.584 A 45.819 45.819 0 0 1 269.8 77.588 A 28.446 28.446 0 0 1 263.085 76.755 A 34.54 34.54 0 0 1 260.156 75.903 Q 255.176 74.219 251.245 70.996 A 21.198 21.198 0 0 1 246.29 65.059 A 26.323 26.323 0 0 1 245.02 62.524 Q 242.725 57.275 242.725 50.879 A 30.147 30.147 0 0 1 243.529 43.794 A 25.498 25.498 0 0 1 245.068 39.282 A 26.078 26.078 0 0 1 248.284 33.898 A 22.066 22.066 0 0 1 251.27 30.762 A 27.374 27.374 0 0 1 269.727 23.779 A 28.367 28.367 0 0 1 278.494 25.09 A 24.506 24.506 0 0 1 285.547 28.711 A 17.414 17.414 0 0 1 290.325 34.319 A 20.413 20.413 0 0 1 290.698 35.034 A 18.515 18.515 0 0 1 292.499 41.348 A 22.921 22.921 0 0 1 292.627 43.799 A 18.794 18.794 0 0 1 292.399 46.864 Q 291.506 52.238 287.109 52.588 Z M 334.912 43.701 L 334.912 43.115 A 27.639 27.639 0 0 0 334.789 40.384 Q 334.521 37.702 333.669 36.301 A 2.873 2.873 0 0 0 331.104 34.766 Q 328.32 34.766 325.781 36.353 A 25.974 25.974 0 0 0 323.569 37.913 Q 322.495 38.753 321.358 39.789 A 49.292 49.292 0 0 0 320.313 40.771 A 522.283 522.283 0 0 1 320.302 43.497 Q 320.266 49.932 320.099 67.675 A 32225.978 32225.978 0 0 1 320.02 75.977 A 86.488 86.488 0 0 1 316.825 76.466 Q 313.524 76.904 311.157 76.904 Q 307.715 76.904 305.225 75.977 A 150.98 150.98 0 0 0 305.481 71.201 Q 305.811 62.952 305.811 48.193 L 305.811 36.768 A 8.048 8.048 0 0 0 305.678 35.241 Q 305.518 34.419 305.168 33.82 A 3.064 3.064 0 0 0 303.223 32.373 Q 301.543 31.86 298.748 31.614 A 44.404 44.404 0 0 0 298.486 31.592 A 21.579 21.579 0 0 1 298.337 30.904 Q 298.193 30.183 298.157 29.684 A 4.333 4.333 0 0 1 298.145 29.37 A 19.126 19.126 0 0 1 298.149 28.928 Q 298.16 28.476 298.193 28.174 Q 305.225 24.219 315.576 24.219 A 97.901 97.901 0 0 1 316.376 24.222 Q 317.479 24.231 318.1 24.267 A 14.507 14.507 0 0 1 318.115 24.268 A 12.813 12.813 0 0 1 319.643 28.283 A 12.031 12.031 0 0 1 319.8 29.346 Q 320.068 31.982 320.215 34.375 Q 325.299 28.191 329.144 25.78 A 12.108 12.108 0 0 1 331.25 24.707 A 12.489 12.489 0 0 1 335.791 23.877 A 14.273 14.273 0 0 1 339.178 24.257 A 9.943 9.943 0 0 1 343.628 26.587 Q 346.582 29.297 346.582 34.521 A 8.942 8.942 0 0 1 345.668 38.583 A 9.072 9.072 0 0 1 343.652 41.211 A 9.96 9.96 0 0 1 336.734 43.847 A 12.727 12.727 0 0 1 336.67 43.848 A 10.675 10.675 0 0 1 334.912 43.701 Z M 57.366 8.715 A 9.884 9.884 0 0 0 55.127 8.203 A 219.952 219.952 0 0 1 55.047 7.637 Q 54.785 5.771 54.785 5.493 A 4.89 4.89 0 0 1 54.797 5.157 Q 54.81 4.98 54.834 4.785 A 50.914 50.914 0 0 1 73.535 1.172 L 74.463 1.172 Q 75.488 2.49 75.83 7.3 A 71.74 71.74 0 0 1 75.946 9.551 Q 76.163 15.182 76.172 28.609 A 1744.186 1744.186 0 0 1 76.172 29.663 A 1439.863 1439.863 0 0 1 76.138 39.134 Q 76.052 52.238 75.742 69.957 A 4696.39 4696.39 0 0 1 75.635 75.879 Q 72.879 76.672 69.196 76.787 A 40.896 40.896 0 0 1 67.92 76.807 Q 63.584 76.807 61.113 75.851 A 8.725 8.725 0 0 1 60.938 75.781 Q 61.659 70.412 61.788 57.054 A 644.321 644.321 0 0 0 61.816 50.83 A 1438.656 1438.656 0 0 0 61.328 13.574 Q 60.69 9.932 57.366 8.715 Z M 141.338 60.888 A 31.52 31.52 0 0 0 143.457 49.316 A 33.09 33.09 0 0 0 143.064 44.112 A 23.007 23.007 0 0 0 135.791 30.273 A 24.719 24.719 0 0 0 118.652 23.584 A 57.619 57.619 0 0 0 117.897 23.589 Q 99.058 23.836 90.967 36.475 A 26.404 26.404 0 0 0 89.032 40.066 A 27.223 27.223 0 0 0 86.768 51.196 A 33.206 33.206 0 0 0 87.255 57.008 A 24.568 24.568 0 0 0 90.234 65.259 A 24.564 24.564 0 0 0 99.561 74.414 A 25.803 25.803 0 0 0 112.354 77.686 Q 126.221 77.686 134.668 70.508 A 21.808 21.808 0 0 0 137.766 67.273 A 25.002 25.002 0 0 0 141.162 61.328 A 30.371 30.371 0 0 0 141.338 60.888 Z M 101.172 50.732 A 24.262 24.262 0 0 0 102.876 59.907 A 22.8 22.8 0 0 0 106.006 65.332 A 19.261 19.261 0 0 0 109.357 68.761 A 12.664 12.664 0 0 0 117.334 71.582 Q 128.792 71.582 129.32 53.765 A 59.538 59.538 0 0 0 129.346 52.002 A 34.734 34.734 0 0 0 128.747 45.36 Q 127.972 41.386 126.197 38.238 A 19.949 19.949 0 0 0 124.902 36.23 Q 120.459 30.176 113.574 30.176 A 11.482 11.482 0 0 0 110.363 30.608 A 9.548 9.548 0 0 0 107.568 31.934 A 11.055 11.055 0 0 0 103.752 36.577 A 13.119 13.119 0 0 0 103.711 36.67 Q 101.172 42.383 101.172 50.732 Z M 582.861 31.592 A 18.599 18.599 0 0 0 577.229 32.409 A 15.177 15.177 0 0 0 571.021 36.182 Q 567.298 39.884 566.579 46.668 A 32.541 32.541 0 0 0 566.406 50.098 Q 566.406 54.625 567.152 57.966 A 19.852 19.852 0 0 0 567.896 60.522 A 28.342 28.342 0 0 0 568.845 62.802 Q 569.887 65.006 571.066 66.274 A 7.906 7.906 0 0 0 571.191 66.406 A 14.922 14.922 0 0 0 573.567 68.415 Q 575.188 69.5 576.876 69.873 A 8.253 8.253 0 0 0 578.662 70.068 A 20.97 20.97 0 0 0 580.818 69.965 Q 583.011 69.738 584.412 69.009 A 5.95 5.95 0 0 0 584.619 68.896 A 10.665 10.665 0 0 0 585.854 68.056 Q 587.141 67.056 588.739 65.361 A 49.702 49.702 0 0 0 589.746 64.258 A 214.508 214.508 0 0 0 589.954 59.029 Q 590.088 54.343 590.088 48.56 A 1000.878 1000.878 0 0 0 590.06 40.87 Q 590.033 37.358 589.98 34.225 A 569.143 569.143 0 0 0 589.941 32.178 A 44.247 44.247 0 0 0 582.97 31.592 A 41.137 41.137 0 0 0 582.861 31.592 Z M 277.1 34.206 A 10.201 10.201 0 0 0 276.27 33.252 A 10.818 10.818 0 0 0 269.749 30.1 A 15.016 15.016 0 0 0 267.822 29.98 Q 263.289 29.98 260.667 33.675 A 12.279 12.279 0 0 0 259.912 34.888 A 18.786 18.786 0 0 0 258.276 39.1 Q 257.718 41.201 257.457 43.719 A 46.308 46.308 0 0 0 257.227 48.486 A 649.065 649.065 0 0 0 268.799 47.131 A 474.709 474.709 0 0 0 279.199 45.703 A 21.502 21.502 0 0 0 279.464 43.355 A 18.515 18.515 0 0 0 279.492 42.334 Q 279.492 37.328 277.1 34.206 Z M 451.221 52.588 L 444.434 52.881 Q 440.671 52.881 438.149 54.198 A 8.615 8.615 0 0 0 436.377 55.42 Q 433.545 57.959 433.545 61.768 A 13.817 13.817 0 0 0 433.669 63.69 Q 433.987 65.945 435.118 67.147 A 4.119 4.119 0 0 0 435.205 67.236 Q 436.865 68.896 441.919 68.896 A 18.421 18.421 0 0 0 450.371 66.805 A 22.483 22.483 0 0 0 451.709 66.064 A 48.428 48.428 0 0 1 451.322 63.525 Q 451.167 62.272 451.109 61.165 A 24.397 24.397 0 0 1 451.074 59.888 A 123.532 123.532 0 0 1 451.083 58.452 Q 451.111 56.104 451.221 52.588 Z" vector-effect="non-scaling-stroke"/></g></svg>